PathFileType	3	(X/Y/Z)	results
DataRate	CameraRate	NumFrames	NumMarkers	Units	OrigDataRate	OrigDataStartFrame	OrigNumFrames
30.0	30.0	4	85	mm	30.0	152	173
Frame#	Time	head			nose			neck			shoulder_r			elbow_r			wrist_r			shoulder_l			elbow_l			wrist_l			hip_r			knee_r			ankle_r			hip_l			knee_l			ankle_l			heel_r			heel_l			mtoe_r			ltoe_r			mtoe_l			ltoe_l			asis_l			asis_r			psi_r			psi_l			mhnd_r			lhnd_r			mhnd_l			lhnd_l			l_lat_knee			r_med_wrist			l_lat_ankle			r_med_ankle			r_lat_knee			xiphoid			l_med_ankle			r_med_knee			l_med_elbow			navel			r_lat_elbow			r_lat_wrist			l_med_wrist			l_lat_elbow			l_med_knee			r_med_elbow			r_lat_ankle			l_lat_wrist			chin			T10			r_eye			l_eye			l_ear			r_ear			spinal_cord_8			spinal_cord_12			spinal_cord_27			spinal_cord_33			up_arm_r_0			up_arm_r_5			up_arm_l_0			up_arm_l_5			front_torso_11			front_torso_7			front_torso_4			front_torso_1			front_torso_10			thigh_r_2			thigh_r_3			thigh_l_1			thigh_l_5			shank_l_0			shank_l_4			shank_r_1			shank_r_2			foot_r_1			foot_r_3			foot_r_5			foot_r_6			foot_r_7			foot_l_1			foot_l_7			foot_l_0			foot_l_4			foot_l_5			foot_l_6			
		X1	Y1	Z1	X2	Y2	Z2	X3	Y3	Z3	X4	Y4	Z4	X5	Y5	Z5	X6	Y6	Z6	X7	Y7	Z7	X8	Y8	Z8	X9	Y9	Z9	X10	Y10	Z10	X11	Y11	Z11	X12	Y12	Z12	X13	Y13	Z13	X14	Y14	Z14	X15	Y15	Z15	X16	Y16	Z16	X17	Y17	Z17	X18	Y18	Z18	X19	Y19	Z19	X20	Y20	Z20	X21	Y21	Z21	X22	Y22	Z22	X23	Y23	Z23	X24	Y24	Z24	X25	Y25	Z25	X26	Y26	Z26	X27	Y27	Z27	X28	Y28	Z28	X29	Y29	Z29	X30	Y30	Z30	X31	Y31	Z31	X32	Y32	Z32	X33	Y33	Z33	X34	Y34	Z34	X35	Y35	Z35	X36	Y36	Z36	X37	Y37	Z37	X38	Y38	Z38	X39	Y39	Z39	X40	Y40	Z40	X41	Y41	Z41	X42	Y42	Z42	X43	Y43	Z43	X44	Y44	Z44	X45	Y45	Z45	X46	Y46	Z46	X47	Y47	Z47	X48	Y48	Z48	X49	Y49	Z49	X50	Y50	Z50	X51	Y51	Z51	X52	Y52	Z52	X53	Y53	Z53	X54	Y54	Z54	X55	Y55	Z55	X56	Y56	Z56	X57	Y57	Z57	X58	Y58	Z58	X59	Y59	Z59	X60	Y60	Z60	X61	Y61	Z61	X62	Y62	Z62	X63	Y63	Z63	X64	Y64	Z64	X65	Y65	Z65	X66	Y66	Z66	X67	Y67	Z67	X68	Y68	Z68	X69	Y69	Z69	X70	Y70	Z70	X71	Y71	Z71	X72	Y72	Z72	X73	Y73	Z73	X74	Y74	Z74	X75	Y75	Z75	X76	Y76	Z76	X77	Y77	Z77	X78	Y78	Z78	X79	Y79	Z79	X80	Y80	Z80	X81	Y81	Z81	X82	Y82	Z82	X83	Y83	Z83	X84	Y84	Z84	X85	Y85	Z85	
152	5.066666666666666	96.09445728303012	1531.2929197606582	-360.28777448473096	145.37500641134892	1351.8899905280725	-409.86931587045785	67.24584103449955	1246.4848132008979	-265.89462433877134	227.17564368787322	1188.1774091618167	-223.3758605083418	316.6716631086116	978.3428244356752	-86.51671865331635	402.28933826234	778.2975277197972	-142.86412480716848	-86.37670625736017	1231.3544833396663	-307.0342889714403	-181.34929534860842	976.3038400175043	-303.1000456455387	-12.133033930725484	802.0665293034893	-297.4426244102886	159.3320765172902	786.145938213898	-137.47534485912334	351.871582545743	522.0740062679923	-336.288075083169	418.1884040183955	185.30987598657777	-126.48778005966967	-5.146583764839563	750.7760984264329	-85.89665097244955	-135.10613915259154	426.8372791476536	-268.55112267005734	-208.05340191668697	99.93257549634976	-50.106661911712145	417.5669899509616	135.38869359429094	-89.4707990566935	-226.53151583217812	42.770626043923876	-2.3621514291621986	536.8968147344817	91.7226066918177	-278.97873344614527	560.5551776169618	122.63860600401777	-197.40345481144337	-200.33358753235996	24.946919464095537	-216.78147645303278	-281.39960617520546	28.43186368953346	-169.8156222184379	-64.35269666833699	747.7628617539331	-143.38221443624852	177.64601920673692	800.307300775166	-214.66363028967777	99.20248372986104	895.9955559607773	-103.57523731538129	16.90111623532901	873.8073278953062	-81.79426768239603	430.2133395237895	711.7280949772968	-129.80853013074338	436.82271644471103	709.3261470152402	-182.90833274291126	15.089648299806795	730.8919327124497	-294.6642844331788	62.67432900798761	755.1525883266108	-296.3572329790591	-179.1952755913307	444.49275627218725	-260.95412203229597	407.66778643167663	782.6407943211301	-115.44258708568978	-264.2846187064737	98.16305581958595	-43.22830413665552	396.03314195326453	157.88509970856467	-144.7161637625111	388.78386819721317	529.2398237675842	-318.02794742147057	100.73213236909935	1059.839995663519	-315.78643521615186	-179.76399321719964	77.56939688206855	-52.552282482867554	316.89327782284425	507.30753328568323	-350.92845870866915	-193.59985930096806	991.0053922382581	-270.9345498550125	99.7685786903263	840.6890749398019	-283.0444705447849	352.1950574834932	993.9487748782499	-98.71994756299726	385.12957341377717	785.9835571697464	-167.74389510071788	-40.520751873618394	788.5353202954601	-309.83256818489434	-172.37000027393293	984.478249460238	-342.70334734565967	-88.30604580861859	424.5065380235611	-279.9118597425331	279.84784713938524	974.0705316318619	-80.90031331586678	464.6255540215031	187.05093670590355	-102.16518802523822	5.07233037920235	829.6727135529511	-298.02152611815734	134.13505614846437	1290.3243843388027	-376.82278077478713	28.846744433205508	1111.4898473300238	-139.04201695466855	171.82228771249308	1382.67543066897	-402.18929769752793	118.16845305187142	1375.6809858070685	-433.48156957101844	30.083245653284983	1388.9823393964593	-380.1902043925659	161.86911869386822	1404.197815721994	-299.9037801254601	50.12928973625451	1314.9590806606177	-233.9519435450009	28.31338310521799	1210.0186384593114	-161.61579268463802	43.600591790861785	959.5175779180681	-116.38932203963296	33.3713159986005	1099.2855161999232	-148.92959279477543	283.3648672143217	1063.4013817606992	-196.02298393651353	287.49303098276323	1086.8964122662453	-109.38615703505714	-104.15311186624106	1178.9354113129054	-336.52919409250654	-182.87034844497092	1058.2822896076332	-273.0162697392903	132.0430603720799	879.3974954797834	-234.91192632621843	111.53441792316676	967.8440293401777	-324.64622658201006	41.604866570343376	1099.1298745658717	-354.9105438071133	21.210122596843497	904.1434300695519	-289.8213683376555	183.96930989310383	1147.3284101536058	-317.34792431000346	247.48152963752267	637.7912073182084	-249.6548777783272	344.4446477418166	642.1757514293993	-228.57298330291837	-51.666135589389576	507.20604080410004	-212.60852772353616	-130.4746853937444	705.3614567638265	-144.29093088037763	-258.8724484247916	184.55394457299562	-117.41044485083515	-114.36438736240454	289.8550207663804	-183.74089062270016	431.1400777689644	401.7779193244544	-223.78719480514312	353.70319465773423	328.1688558563766	-245.55960526273066	548.3024395702338	96.90319014106267	-250.9276209507748	558.8494806423267	110.56325260332022	-226.60581585960355	480.23525952089363	109.84970661712735	-217.94889961706218	501.80279217076674	132.45257602106105	-192.47128362131147	524.4312142732977	133.97438186191823	-164.02252874916144	-250.61717188648552	22.42884530385879	-195.76999284152328	-270.8852682667682	60.84655265088279	-98.8987574045041	-265.2136472905906	25.229568854952714	-189.55347560283184	-232.73962890858536	19.003023942872538	-202.79043618243557	-241.12623984459202	38.8845231872363	-148.63818319644454	-212.7172624658796	47.512674820039166	-118.35693350088619	
153	5.1	137.83373893189966	1543.0913535185946	-361.5166733381398	186.54582956857914	1365.2439066069205	-416.9218232667203	115.52288253942865	1264.011913069319	-272.68549083262747	274.3645580754158	1211.4110936859124	-231.85939548350683	359.6217226493542	997.2270852573695	-99.09290283216906	439.9752364849347	792.3999938628857	-145.05715701181586	-39.5173509154853	1240.6955769592262	-316.0870411759969	-135.73951134263487	986.3641991408518	-304.1309670699006	23.276942845493586	804.0481638529367	-281.78324766811124	198.1023120720079	792.2639316601679	-145.2782061894141	398.472279934466	522.1216885298344	-325.9145231199885	499.3259808774083	182.51022762176265	-135.34498024291307	27.00505787219684	765.4441977696172	-114.11655672768498	-114.82786280705645	425.8860710353323	-247.73086336775006	-202.90249188070487	93.97525235521037	-42.830792585050126	507.351042446072	127.18408044347498	-102.61392147318841	-223.72613540313554	36.41729232689072	3.088186162063196	598.8759921214206	149.66796336716342	-310.4052832291466	629.8246054537619	167.99804350261016	-227.48221811989222	-202.29551914871075	22.28992000551975	-212.13451000492432	-282.2085229921277	29.206883040216145	-163.59892390626402	-26.13841410790463	775.4472886586285	-176.5244325584083	225.17155357604207	814.7957165420565	-217.7595895134466	143.5568463435603	901.6579493444316	-101.81023173975045	58.002692919620685	884.3391915267996	-90.81975159211314	466.6406523264729	726.0704252502032	-128.59411658435803	472.37230425137824	720.4877915983534	-181.55659974430247	46.4349078907663	731.7461743471097	-274.65950081611015	95.27325774421784	753.4378768302872	-274.47797759273715	-159.23121153301847	443.13887533601803	-241.32851399019327	445.8714403010949	798.1808220222044	-118.00999067517904	-259.0911547982945	94.8153256957418	-35.44694646367461	476.4371213199503	154.72598285604838	-152.05975856778323	435.4855901216371	531.0172076647456	-308.5186642295038	148.60383019813682	1077.2953161506334	-322.5791352238549	-175.83706092901085	70.30816771135284	-46.53417133134402	364.4291446608594	505.21061367684996	-340.404825151451	-149.7050399645076	1002.7578060692455	-273.5197806098866	147.1362655153178	858.1450131839749	-289.85175060776413	395.3277627641164	1011.3992881412062	-112.45716104929066	422.60351661649435	799.0378371823133	-170.09109264132505	-5.046062287105343	791.489466659585	-295.2944785160607	-124.51753815176765	992.4290895622145	-343.54105000823847	-69.74018734071852	419.701962259687	-262.81722088316826	322.86679529159557	994.4706685739504	-92.21777379739774	547.9662340574479	185.47398592924725	-115.9447074770639	41.945430415143505	830.6856225071999	-282.4113124292576	176.04903997846117	1302.765446223127	-385.37831005773705	76.78050131311856	1129.0956547077021	-145.85352894195915	213.06908090189063	1395.873960201237	-408.8905314935094	158.8555171903628	1389.605200308529	-439.3610856536103	71.7522749954283	1401.213670338881	-384.096558196749	204.98082262023536	1414.5533585516096	-305.8843865694949	98.5508437718069	1332.5225238590717	-240.74362804930166	76.47616549950096	1227.6268528259634	-168.4210472703973	91.18481380034275	977.089059364516	-123.2061886360852	81.28060638173068	1116.8817947210048	-155.74050425163787	326.16145873299564	1084.2337749190176	-207.01032337214264	334.26714146400445	1107.03809506303	-120.46981921170823	-55.85534171295925	1186.8274247584354	-343.7456993465047	-138.56476891532066	1069.8140227295478	-278.51928545458827	179.48305195073166	896.7774929292416	-241.7067330305375	159.20148554044033	985.2758090037635	-331.44158983284586	89.57733828706269	1116.72087679192	-361.7189159951845	68.72311384412596	921.7766965924956	-296.64873994184285	232.03845111768885	1164.5960115184816	-324.109253076469	290.90410820259916	639.7382200122335	-247.6863786744588	387.5677405212892	647.9822972591414	-226.38628122053558	-28.64421690356121	509.2605730086225	-208.02848356946652	-101.82198377351206	715.2705735052077	-159.5666989739107	-249.79717546421264	183.9629064132012	-105.88839767006306	-100.5514910201245	284.44818254651517	-169.12651395302365	493.6838384395687	402.0321430789248	-226.29348551931326	417.25117741309936	325.93476983627835	-242.29476864741557	613.6992160539054	151.48322956164859	-283.558151615378	625.4789948374271	161.95545750566043	-258.2410262169038	550.998875623799	142.31409184194936	-240.28063351455646	571.9723069222484	163.50763231901308	-213.1493580499225	598.4059491282011	164.2081884883139	-188.16006405380125	-252.26986262743839	22.10400494604304	-190.25318403979028	-268.6469841496043	59.26960331455993	-92.16516024312732	-266.5742225337063	25.57228863811921	-183.70318181731133	-234.7395762882958	17.84633747144852	-197.68223163490413	-241.04670356301995	36.86516269323671	-142.941203224964	-211.67435169323602	43.1521624903198	-113.00447563799045	
154	5.133333333333333	180.2159080546918	1555.2587741294278	-366.88337466636983	231.49561857277362	1378.6311963847365	-423.8518120245248	169.9600623812615	1281.7373930648396	-277.4835795492573	330.6770995390087	1235.6977202883868	-242.97474867116838	410.4857352276429	1017.4194105030399	-113.53103003092536	471.6033193306447	804.4720167036123	-151.49924837975357	1.3656409633423343	1249.3155012722677	-324.10203212832323	-95.82018899581227	996.5081926048024	-297.09313085939937	56.898008901690275	810.1150732348565	-266.1165740686438	242.6768265927648	804.9277366525725	-153.63737932718067	440.6821909183619	523.1475510264547	-316.5883621780288	576.294438394818	180.97955276588158	-154.2475375308759	68.7979366965529	779.5176458472276	-144.4137221579467	-88.98920152263314	433.5870912925753	-227.14727797695198	-198.31187137134106	95.7797596684049	-43.18877339444249	591.3494633425428	123.35380652553438	-126.85987419069426	-222.0120292002909	38.62772319990643	0.6407417195706602	656.7617333037682	182.2188763510132	-337.37289022000783	694.6459354999782	193.31566187480027	-256.06057991538006	-207.18836063758852	23.588512558716573	-215.07607241593328	-285.2524777773498	34.95749214460487	-164.41666463014204	23.317851772323415	795.6644519684908	-211.42025866375224	278.1913801526843	832.5795472034819	-220.48100245481342	184.91748116687955	911.679696786454	-107.81597861809813	98.44973907068879	895.446769054485	-108.07059272554542	495.12400617974646	737.567581449252	-132.73061476128254	495.2099414259315	728.0253759497914	-185.4371720771039	77.57635594960266	737.4900717824654	-255.50375502013128	127.13293495194183	757.4643875752619	-256.4626658095164	-133.5515104795012	450.9330494565039	-220.79706604813686	480.52067736332833	811.5914456510325	-125.62403132422837	-254.14319120291412	100.26539040661936	-34.520694600781944	553.8464445660082	152.72354565026308	-170.7682396477822	478.4293786875694	533.2483115357697	-301.4857570188424	201.33876908762187	1095.657902583763	-330.7434368647866	-173.17393923342848	70.48597540133261	-49.07879101406318	406.95063993681714	504.91464365214557	-330.11649511584346	-109.55271175174423	1014.6889316295626	-267.39953522714	196.64852498419495	875.9263911971224	-302.52721361859693	445.6489408967086	1027.9868008975143	-131.03118032391708	452.3484238308821	810.7119776486319	-175.22365427160037	28.114753893030418	797.897945591782	-278.9514046955507	-84.78791861393447	1000.2568384125187	-336.84368909643274	-46.59896724228861	422.8069969911308	-246.64038678604248	374.59323499289997	1018.1786366459678	-102.71706129533301	626.0546468068125	185.99913552320774	-138.44392642929176	76.47037886106037	836.0291815019593	-268.0767842447117	223.41519357423067	1315.9143593288966	-392.07070268661903	127.80079578602152	1144.7902622274585	-153.96113209139662	257.50752748157026	1409.881598264561	-416.5732359757984	202.5886196926955	1402.3317927776047	-445.4484245657652	116.89099468548814	1411.8545855120174	-387.6458912388715	251.99961516573356	1428.3423150708518	-313.3575851577721	153.42948324501447	1349.8003817052931	-244.3745774571799	129.051514779444	1243.7545384853358	-174.5108336261133	139.96786837482995	992.1816737549938	-134.238750438885	132.27851111598213	1132.722114681128	-164.03543020100295	373.3785361353839	1104.8607516413022	-219.89357324375797	392.8024019055169	1128.6209342040715	-135.43550593674306	-15.34051043210177	1194.0232585569543	-348.54342197592166	-98.1680675928211	1081.299517115145	-276.29091640093014	228.83049336192835	913.1519393269783	-253.17840127985357	210.88630332493958	1003.7074041091356	-341.3450177024868	143.3508556156272	1136.6310196271725	-369.84624480676365	119.1481209440092	940.6940163696027	-309.0582667912605	285.8877060138243	1181.8827082329885	-329.3837325791418	334.409370583858	645.6251697893861	-246.2199502259275	431.3908801945517	655.7580561255021	-227.3141790865954	0.6026030629774498	516.4821002122675	-205.30739658321195	-64.28145945564688	728.4766592828189	-173.81111441493488	-239.36238368509132	193.12109900147394	-98.98007993890646	-84.07089855845693	286.4022484897576	-158.59388868401757	550.4424268375936	404.231197933786	-231.60199556369344	477.64030269687294	324.37823827248025	-246.16765729574175	674.1896145614783	182.29939474930694	-312.073599584673	687.5725669327517	190.75752280581045	-286.80020961913544	617.8625362089122	160.64906602717386	-264.6724090929939	639.4624185791369	180.48951147897984	-237.01451885190855	668.2790222377566	181.02877946504032	-214.81078994740932	-256.4889541702542	26.204944500577135	-191.86254709658257	-268.1012029540191	64.11114644345828	-93.37890502224683	-270.3932807566477	30.469327511375244	-184.9321089482855	-239.43330582071928	20.970876508298193	-199.75804019430765	-243.1844048132285	40.24535084979952	-144.8717973472921	-212.71178799134964	44.8198225496198	-115.73482921191344	
155	5.166666666666667	229.68612063373627	1563.5849131630064	-366.6903143338744	277.70501003399266	1388.976684669385	-432.10029513872183	222.05347171097318	1293.7543679675218	-287.6940860734703	392.9428181930247	1252.333909166912	-256.1314800855546	460.07456182276326	1028.8898830888045	-128.3167260237467	505.5217034293704	810.9191256168593	-159.08754700784903	46.96658213161193	1255.093930552676	-331.6434715984601	-62.20001577003152	1009.2539129189839	-290.03288111072305	86.3546709404826	819.1553344053913	-261.41775413943367	289.3582498115427	810.4204351737803	-164.5956904871076	483.98241180190365	517.8417382525724	-310.802989692053	633.0069075928129	175.05140562136705	-162.10648147738945	114.8949914363716	794.540094931287	-181.17891058307688	-49.14356196375321	445.7387905740594	-217.05977590763237	-187.83375474331876	109.37882362902378	-51.12914608412314	649.225062349839	117.99137855600694	-135.2112090875739	-213.50486128203508	54.41012990542803	-7.622543980673253	711.5265630811623	171.51816568890354	-348.0797072047243	748.8451822645161	187.7551602588269	-267.37206257508336	-213.48880785167435	31.970588055831367	-223.20577526503368	-288.17263656743245	41.69150840175261	-167.37151056292305	79.02712013079841	825.8328745668805	-248.656989674154	334.17286128718143	847.9437323486865	-220.07207160145202	230.28765852989693	909.9672244215843	-106.00536931129484	144.01380092804263	899.4592178654297	-119.66723181313476	525.3532713762379	743.4273223044601	-138.27281249424036	522.6727806796299	731.7097808576696	-190.47009639689736	105.41698951624375	746.3333819285197	-249.24368133192064	155.40185518829736	764.5835281287063	-254.16228795636343	-94.40859375206591	463.0431746527632	-213.57261451882718	515.9299978191865	818.4969519800766	-133.9086598999003	-239.71112382537814	121.8272085697275	-31.9936022789426	608.6229916126679	146.95318860504753	-175.93264527899203	522.0967661550726	528.3095174219311	-296.8618302678087	249.7288939381504	1106.8135729132644	-339.9819676767727	-169.10848012921653	81.28339406681484	-64.02854105521952	450.31067488263704	499.21222647724665	-323.9142008223983	-73.04319123367581	1029.1194232761923	-260.2231827155188	244.51567140064577	887.4722201971019	-308.96126427236294	495.1694234664254	1036.383574029571	-147.46277823426823	485.7689181817481	817.4430857834008	-182.32116418059982	56.432220332910674	807.4315891721483	-271.8899841457666	-53.45648181459161	1011.1085660477015	-330.4801441957398	-8.524908290426957	430.41124741791697	-237.63184821261873	424.8942901453353	1032.7060183400963	-115.92416722026682	684.2338458569053	179.62609287676435	-151.81562589026433	106.55242070403442	844.3052274712738	-265.6597914216324	269.5736365673435	1325.0666994567166	-402.80646669558087	184.03650112369561	1158.609772620006	-160.88571203554838	304.2244709867116	1419.6136846670904	-424.08299422476256	248.62391814671903	1413.8726969538027	-452.0558756580906	164.2829661014612	1421.865762597515	-392.06742608602707	301.1131354065253	1433.7685776491603	-320.0898967016896	207.45226657391922	1362.3330468458096	-254.74251402238602	185.1954343419195	1257.3140347843187	-182.65514038831583	195.8316321132028	1006.1461066324478	-139.85961616490692	187.9948222450566	1146.388394637951	-170.99270052358565	425.6091888084321	1118.520322468529	-233.7417959208674	450.73353626843345	1141.053806337569	-150.4591012025685	25.74770767683308	1200.1077789883168	-353.09088728503065	-58.56253019481793	1094.6539503243334	-272.10481143338046	279.0227127160034	925.0032217080444	-261.44901504414804	258.10948801664654	1014.6699430050168	-349.8693437810232	190.47581312113277	1147.8060362574843	-377.1183969706667	167.31561679169016	952.7977914988383	-313.02744858878816	334.9283076818058	1192.346453647302	-343.1874085850372	379.32681627606564	645.1864809870218	-248.06483030911747	476.41314601656927	655.2867923299386	-229.68698869110187	41.10251415106507	527.4451524553248	-208.77063727326438	-19.619497960655195	742.8616112267634	-201.54312246254742	-218.64077920186935	218.62602933737662	-88.40012781579345	-60.518358519669796	292.04654970690376	-165.71346212533734	601.127897738009	398.19077982476676	-237.51128344698645	526.3916786125573	319.03415535693694	-243.63739979055526	728.9397236997921	173.48609262631538	-322.8467776119233	741.894906857991	183.611742890165	-297.96662446099117	673.7839115438843	150.98152916407344	-274.4760182801005	694.3787987682873	172.9717138921521	-247.69095747074903	723.1422492999636	175.84046634522898	-225.5973564397258	-261.06608421007985	33.22455113312395	-196.53946041936496	-267.38445896592486	74.23660707495102	-98.82128589872852	-274.62552394298837	37.112974214373246	-188.75691627994146	-244.3898955847421	28.47439072944227	-205.48206231693737	-245.1122468412923	49.606013920481494	-151.15887694799522	-212.88206703040652	56.6440769542919	-124.51023237612874	
